<svg width="36" height="32" viewBox="0 0 36 32" fill="none" xmlns="http://www.w3.org/2000/svg">
<rect width="36" height="32" fill="white"/>
<path d="M34.5 16C34.5 23.8469 27.2837 30.5 18 30.5C8.71633 30.5 1.5 23.8469 1.5 16C1.5 8.15308 8.71633 1.5 18 1.5C27.2837 1.5 34.5 8.15308 34.5 16Z" fill="#823131" stroke="#010101" stroke-width="3"/>
<path d="M21.855 18.715C21.895 18.715 21.97 18.755 22.08 18.835C22.19 18.915 22.305 18.955 22.425 18.955H22.44C22.78 18.955 23.05 18.82 23.25 18.55C23.45 18.28 23.56 18.01 23.58 17.74L23.625 17.335C23.625 16.955 23.565 16.63 23.445 16.36C23.335 16.08 23.205 15.875 23.055 15.745C22.905 15.605 22.73 15.5 22.53 15.43C22.28 15.33 22.015 15.28 21.735 15.28C21.465 15.28 21.245 15.31 21.075 15.37C20.905 15.42 20.81 15.47 20.79 15.52L20.775 15.61C20.685 16.96 20.64 18.17 20.64 19.24C20.64 20.3 20.655 21.215 20.685 21.985C20.725 22.755 20.76 23.35 20.79 23.77C20.83 24.18 20.85 24.405 20.85 24.445C20.85 24.695 20.63 24.895 20.19 25.045C19.75 25.195 19.315 25.27 18.885 25.27C18.685 25.27 18.585 25.22 18.585 25.12C18.585 25.09 18.6 25.02 18.63 24.91C18.82 24.47 18.915 22.425 18.915 18.775C18.915 16.625 18.77 15.395 18.48 15.085C18.42 15.025 18.39 14.965 18.39 14.905C18.39 14.835 18.46 14.76 18.6 14.68C18.75 14.6 19.16 14.51 19.83 14.41C20.5 14.3 21.21 14.245 21.96 14.245C23.14 14.245 24.025 14.565 24.615 15.205C25.215 15.845 25.515 16.61 25.515 17.5C25.515 18.38 25.27 19.145 24.78 19.795C24.3 20.445 23.67 20.77 22.89 20.77C22.64 20.77 22.39 20.725 22.14 20.635C21.64 20.455 21.39 20.08 21.39 19.51C21.39 19.39 21.43 19.23 21.51 19.03C21.59 18.82 21.705 18.715 21.855 18.715Z" fill="#FBF7F7"/>
<path d="M18.392 15.336C18.5947 15.336 18.696 15.592 18.696 16.104C18.696 16.616 18.6 17.0747 18.408 17.48C18.216 17.8853 17.9813 18.2 17.704 18.424C17.4373 18.648 17.1333 18.8293 16.792 18.968C15.6507 19.4693 14.584 19.4587 13.592 18.936C13.0907 18.6693 12.7067 18.3547 12.44 17.992C12.1733 17.6187 11.96 17.176 11.8 16.664C11.5547 15.896 11.432 15.0907 11.432 14.248C11.432 13.4053 11.512 12.616 11.672 11.88C11.832 11.144 12.0773 10.4453 12.408 9.784C12.7387 9.112 13.208 8.57333 13.816 8.168C14.424 7.76267 15.128 7.56 15.928 7.56C16.2693 7.56 16.6213 7.61867 16.984 7.736C17.3573 7.84267 17.6613 7.98133 17.896 8.152C18.1307 8.312 18.3387 8.56267 18.52 8.904C18.7013 9.24533 18.792 9.64533 18.792 10.104C18.792 10.5947 18.6747 11.0373 18.44 11.432C18.3333 11.6133 18.1627 11.7787 17.928 11.928C17.6933 12.0667 17.416 12.136 17.096 12.136C16.6053 12.136 16.2587 11.9173 16.056 11.48C15.9707 11.3093 15.928 11.1227 15.928 10.92C15.928 10.7173 15.9973 10.6 16.136 10.568C16.2853 10.5253 16.424 10.408 16.552 10.216C16.68 10.024 16.744 9.8 16.744 9.544C16.744 9.34133 16.6907 9.16533 16.584 9.016C16.3813 8.74933 16.088 8.616 15.704 8.616C15.32 8.616 14.968 8.792 14.648 9.144C14.3387 9.496 14.104 9.93867 13.944 10.472C13.624 11.5387 13.464 12.52 13.464 13.416C13.464 14.312 13.5867 15.032 13.832 15.576C14.1307 16.248 14.5093 16.696 14.968 16.92C15.256 17.0587 15.5867 17.128 15.96 17.128C16.5893 17.128 17.1547 16.8453 17.656 16.28C17.8693 16.056 18.0453 15.7893 18.184 15.48C18.2373 15.384 18.3067 15.336 18.392 15.336Z" fill="#F9F9F9"/>
</svg>
